<svg xmlns="http://www.w3.org/2000/svg" viewBox="0 0 500 500" fill="none">
  <defs>
    <linearGradient id="bg" x1="0" y1="0" x2="500" y2="500" gradientUnits="userSpaceOnUse">
      <stop stop-color="#EAF3E8"/>
      <stop offset="1" stop-color="#DDEBDC"/>
    </linearGradient>
    <linearGradient id="phone" x1="182" y1="54" x2="330" y2="443" gradientUnits="userSpaceOnUse">
      <stop stop-color="#242B27"/>
      <stop offset="1" stop-color="#0F1512"/>
    </linearGradient>
    <linearGradient id="card" x1="193" y1="168" x2="316" y2="254" gradientUnits="userSpaceOnUse">
      <stop stop-color="#FF794D"/>
      <stop offset="1" stop-color="#E83D0A"/>
    </linearGradient>
    <filter id="shadow" x="129" y="33" width="252" height="447" color-interpolation-filters="sRGB" filterUnits="userSpaceOnUse">
      <feDropShadow dx="0" dy="18" stdDeviation="16" flood-color="#294332" flood-opacity=".22"/>
    </filter>
  </defs>
  <path fill="url(#bg)" d="M0 0h500v500H0z"/>
  <circle cx="88" cy="100" r="49" fill="#D0E5CD"/>
  <circle cx="419" cy="397" r="60" fill="#D0E5CD"/>
  <path d="m76 332 18-31 18 31m-28-10h20" stroke="#83AA7C" stroke-width="6" stroke-linecap="round" stroke-linejoin="round"/>
  <g filter="url(#shadow)">
    <rect x="166" y="52" width="168" height="376" rx="32" fill="url(#phone)"/>
    <rect x="176" y="65" width="148" height="349" rx="24" fill="#F8F8F5"/>
    <rect x="222" y="73" width="56" height="13" rx="6.5" fill="#18201B"/>
    <circle cx="192" cy="103" r="5" fill="#F63E04"/>
    <rect x="206" y="100" width="65" height="6" rx="3" fill="#333B35"/>
    <circle cx="303" cy="103" r="8" fill="#E9ECE7"/>
    <rect x="190" y="125" width="120" height="118" rx="15" fill="url(#card)"/>
    <text x="205" y="151" fill="#FFE4D9" font-family="Arial,sans-serif" font-size="11" font-weight="700">AVAILABLE BALANCE</text>
    <text x="204" y="185" fill="#fff" font-family="Arial,sans-serif" font-size="27" font-weight="700">$2,840</text>
    <path d="M205 218c12-16 20-5 31-17 9-10 14 5 25-4 10-8 18-7 33-18" stroke="#fff" stroke-width="3" stroke-linecap="round"/>
    <circle cx="205" cy="272" r="20" fill="#EAF3E8"/>
    <circle cx="250" cy="272" r="20" fill="#FFF0E9"/>
    <circle cx="295" cy="272" r="20" fill="#EAF3E8"/>
    <path d="M205 264v16m-8-8h16m37-8v16m-8-8h16m37-8v16m-8-8h16" stroke="#406C45" stroke-width="3" stroke-linecap="round"/>
    <rect x="190" y="310" width="120" height="9" rx="4.5" fill="#D6DBD3"/>
    <rect x="190" y="330" width="80" height="7" rx="3.5" fill="#E3E6E0"/>
    <rect x="190" y="353" width="120" height="9" rx="4.5" fill="#D6DBD3"/>
    <rect x="190" y="373" width="58" height="7" rx="3.5" fill="#E3E6E0"/>
    <path d="M207 397h86" stroke="#B8C2B7" stroke-width="4" stroke-linecap="round"/>
  </g>
  <circle cx="360" cy="122" r="29" fill="#F63E04"/>
  <path d="m350 122 7 7 14-16" stroke="#fff" stroke-width="4" stroke-linecap="round" stroke-linejoin="round"/>
</svg>
